<svg xmlns="http://www.w3.org/2000/svg" width="50" height="50" viewBox="0 0 50 50"><title>star2</title><g id="Слой_2" data-name="Слой 2"><g id="Слой_1-2" data-name="Слой 1"><path d="M0,0V50H50V0ZM47.75,20.79,37,32.06,39.52,48a.93.93,0,0,1-.33.86.78.78,0,0,1-.87.07L25,41.39,11.68,48.9a.77.77,0,0,1-.87-.07.93.93,0,0,1-.33-.86L13,32.06,2.25,20.79a.9.9,0,0,1-.21-.9.85.85,0,0,1,.67-.6L17.6,17,24.26,2.49a.8.8,0,0,1,1.48,0L32.4,17l14.89,2.32a.84.84,0,0,1,.67.6A.9.9,0,0,1,47.75,20.79Z" style="fill:#fff"/><path d="M47.29,19.29,32.4,17,25.74,2.49a.8.8,0,0,0-1.48,0L17.6,17,2.71,19.29a.85.85,0,0,0-.67.6.9.9,0,0,0,.21.9L13,32.06,10.48,48a.93.93,0,0,0,.33.86.77.77,0,0,0,.87.07L25,41.39,38.32,48.9a.78.78,0,0,0,.87-.07.93.93,0,0,0,.33-.86L37,32.06,47.75,20.79a.9.9,0,0,0,.21-.9A.84.84,0,0,0,47.29,19.29Z" style="fill:#fff;stroke:#e0ce22;stroke-miterlimit:10"/></g></g></svg>